<svg width="24" height="24" viewBox="0 0 24 24" fill="none" xmlns="http://www.w3.org/2000/svg">
<g id="Group 37307">
<rect id="Rectangle 4131" width="24" height="24" rx="5" fill="#9ABFF6"/>
<path id="Vector" d="M17.8899 8.91473L16.0183 7.30233L15.9083 7.17829L14.5872 6.06202C14.5321 6 14.4771 6 14.422 6H9.57798C9.52294 6 9.46789 6 9.41284 6.06202L6.11009 8.91473C6.05505 8.97674 6 9.03876 6 9.16279C6 9.22481 6 9.34884 6.05505 9.41085L11.7798 17.907C11.8899 18.031 12.1101 18.031 12.2202 17.907L17.945 9.34884C18 9.28682 18 9.22481 18 9.10078C18 9.03876 17.945 8.97674 17.8899 8.91473ZM8.97248 7.24031L9.57798 6.74419C9.63303 6.68217 9.68807 6.68217 9.74312 6.68217H14.2569C14.3119 6.68217 14.367 6.68217 14.422 6.74419L15.0275 7.30233C15.0826 7.36434 15.1376 7.42636 15.1376 7.55039C15.1376 7.67442 15.0826 7.73643 15.0275 7.79845L14.2018 8.4186C14.1468 8.48062 14.0917 8.48062 14.0367 8.48062L10.1284 8.4186C10.0734 8.4186 10.0183 8.4186 9.9633 8.35659L9.02752 7.73643C8.91743 7.67442 8.91743 7.6124 8.86239 7.48837C8.86239 7.36434 8.91743 7.30233 8.97248 7.24031ZM8.09174 11.1473C7.98165 11.1473 7.92661 11.0853 7.87156 11.0233L6.82569 9.47287C6.77064 9.41085 6.7156 9.34884 6.77064 9.22481C6.77064 9.16279 6.82569 9.10077 6.88073 9.03876L8.09174 7.9845C8.20184 7.92248 8.31193 7.92248 8.42202 7.9845L9.41284 8.66667C9.46789 8.72868 9.52294 8.7907 9.52294 8.85271C9.52294 8.91473 9.52294 9.03876 9.46789 9.10078L8.31193 11.0233C8.25688 11.0853 8.14679 11.1473 8.09174 11.1473ZM15.1927 12.4496L12.2202 16.8527C12.1651 16.9147 12.1101 16.9767 12 16.9767C11.8899 16.9767 11.8349 16.9147 11.7798 16.8527L8.80734 12.4496C8.75229 12.3256 8.75229 12.2016 8.80734 12.1395C8.86239 12.0155 8.97248 11.9535 9.02752 11.9535H15.0275C15.1376 11.9535 15.2477 12.0155 15.2477 12.1395C15.3028 12.2016 15.2477 12.3256 15.1927 12.4496ZM15.2477 11.1473C15.1927 11.2713 15.0826 11.3333 15.0275 11.3333H9.30275C9.19266 11.3333 9.08257 11.2713 9.08257 11.1473C9.08257 11.0233 9.02752 10.8992 9.08257 10.8372L10.0734 9.16279C10.1284 9.10078 10.1835 9.03876 10.2936 9.03876L13.9817 9.10078C14.0917 9.10078 14.1468 9.16279 14.2018 9.22481L15.2477 10.8372C15.3028 10.8992 15.3028 11.0233 15.2477 11.1473ZM17.1743 9.47287L16.2936 10.7752C16.2385 10.8372 16.1835 10.8992 16.0734 10.8992C15.9633 10.8992 15.9083 10.8372 15.8532 10.7752L14.7523 9.03876C14.6422 8.91473 14.6972 8.72868 14.8073 8.60465L15.578 7.9845C15.6881 7.92248 15.7982 7.92248 15.9083 7.9845L17.1193 9.03876C17.1743 9.10077 17.2294 9.16279 17.2294 9.22481C17.2844 9.34884 17.2294 9.41085 17.1743 9.47287Z" fill="white"/>
<line id="Line 54" x1="0.353553" y1="14.0463" x2="9.95355" y2="23.6463" stroke="white" stroke-opacity="0.2"/>
<line id="Line 55" x1="13.5535" y1="0.846398" x2="23.1535" y2="10.4464" stroke="white" stroke-opacity="0.2"/>
<line id="Line 56" x1="0.353553" y1="18.8464" x2="4.59619" y2="23.089" stroke="white" stroke-opacity="0.2"/>
<line id="Line 57" x1="18.3536" y1="0.846398" x2="23.275" y2="5.76786" stroke="white" stroke-opacity="0.2"/>
</g>
</svg>
