<svg width="20" height="15" viewBox="0 0 20 15" fill="none" xmlns="http://www.w3.org/2000/svg">
<g id="Group 37290">
<path id="Vector" d="M18.75 1.75H18.125V12.375C18.125 12.6236 18.0262 12.8621 17.8504 13.0379C17.6746 13.2137 17.4361 13.3125 17.1875 13.3125H13.35C12.5254 13.3131 11.7123 13.5057 10.975 13.875L10.4187 14.15C10.2892 14.2164 10.1456 14.2507 10 14.25C9.77773 14.2368 9.56256 14.1669 9.375 14.0469C9.29062 14 9.19063 13.9469 9.0625 13.8875H9.03125C8.29397 13.5182 7.48084 13.3256 6.65625 13.325H2.8125C2.56386 13.325 2.3254 13.2262 2.14959 13.0504C1.97377 12.8746 1.875 12.6361 1.875 12.3875V1.75H1.25C1.16712 1.75 1.08763 1.78292 1.02903 1.84153C0.970424 1.90013 0.9375 1.97962 0.9375 2.0625V14.5625C0.9375 14.6454 0.970424 14.7249 1.02903 14.7835C1.08763 14.8421 1.16712 14.875 1.25 14.875H18.75C18.8329 14.875 18.9124 14.8421 18.971 14.7835C19.0296 14.7249 19.0625 14.6454 19.0625 14.5625V2.0625C19.0625 1.97962 19.0296 1.90013 18.971 1.84153C18.9124 1.78292 18.8329 1.75 18.75 1.75Z" fill="white"/>
<path id="Vector_2" d="M9.58437 1.19375C8.74135 0.771149 7.81738 0.534563 6.875 0.5V7.6875C6.87471 7.74378 6.85923 7.79893 6.83019 7.84714C6.80115 7.89534 6.75964 7.93481 6.71002 7.96138C6.66041 7.98794 6.60455 8.00062 6.54833 7.99807C6.49211 7.99551 6.43762 7.97783 6.39063 7.94688L5.625 7.4375L4.85938 7.94688C4.81238 7.97783 4.75789 7.99551 4.70167 7.99807C4.64545 8.00062 4.58959 7.98794 4.53998 7.96138C4.49036 7.93481 4.44885 7.89534 4.41981 7.84714C4.39077 7.79893 4.37529 7.74378 4.375 7.6875V0.5H2.8125C2.72962 0.5 2.65013 0.532924 2.59153 0.591529C2.53292 0.650134 2.5 0.72962 2.5 0.8125V12.375C2.5 12.4579 2.53292 12.5374 2.59153 12.596C2.65013 12.6546 2.72962 12.6875 2.8125 12.6875H6.65C7.57193 12.6868 8.48136 12.9008 9.30625 13.3125C9.46875 13.3813 9.5875 13.4469 9.6875 13.5V1.24375L9.58437 1.19375ZM17.1875 0.5H13.35C12.3314 0.501726 11.3271 0.739172 10.4156 1.19375L10.3125 1.24375V13.5062L10.6938 13.3125C11.5186 12.9008 12.4281 12.6868 13.35 12.6875H17.1875C17.2704 12.6875 17.3499 12.6546 17.4085 12.596C17.4671 12.5374 17.5 12.4579 17.5 12.375V0.8125C17.5 0.72962 17.4671 0.650134 17.4085 0.591529C17.3499 0.532924 17.2704 0.5 17.1875 0.5ZM11.875 6.125H14.4156V6.75H11.875V6.125ZM11.875 8.625H14.4156V9.25H11.875V8.625ZM15.625 10.5H11.875V9.875H15.625V10.5ZM15.625 8H11.875V7.375H15.625V8ZM15.625 5.5H11.875V4.875H15.625V5.5Z" fill="white"/>
</g>
</svg>
