<svg width="20" height="20" viewBox="0 0 20 20" fill="none" xmlns="http://www.w3.org/2000/svg">
<g id="Frame 3">
<path id="Vector" d="M1.71021 14.4389C1.61511 14.3466 1.50297 14.2742 1.38022 14.2259C1.13676 14.1244 0.863684 14.1244 0.620225 14.2259C0.497475 14.2742 0.385332 14.3466 0.290229 14.4389C0.19919 14.5354 0.127825 14.6492 0.0802316 14.7737C0.00365303 14.9585 -0.0172694 15.1621 0.0201043 15.3589C0.057478 15.5557 0.151473 15.7368 0.290229 15.8795C0.387429 15.9691 0.499042 16.0411 0.620225 16.0925C0.739924 16.1462 0.869352 16.1739 1.00022 16.1739C1.13109 16.1739 1.26052 16.1462 1.38022 16.0925C1.5014 16.0411 1.61301 15.9691 1.71021 15.8795C1.84897 15.7368 1.94296 15.5557 1.98034 15.3589C2.01771 15.1621 1.99679 14.9585 1.92021 14.7737C1.87262 14.6492 1.80125 14.5354 1.71021 14.4389ZM5.00017 6.02895H19C19.2652 6.02895 19.5196 5.92206 19.7071 5.73181C19.8946 5.54156 20 5.28353 20 5.01447C20 4.74542 19.8946 4.48738 19.7071 4.29713C19.5196 4.10688 19.2652 4 19 4H5.00017C4.73496 4 4.48061 4.10688 4.29308 4.29713C4.10554 4.48738 4.00019 4.74542 4.00019 5.01447C4.00019 5.28353 4.10554 5.54156 4.29308 5.73181C4.48061 5.92206 4.73496 6.02895 5.00017 6.02895ZM1.71021 9.36656C1.56959 9.2258 1.39102 9.13044 1.19703 9.09252C1.00304 9.05461 0.802334 9.07584 0.620225 9.15352C0.499042 9.2049 0.387429 9.27695 0.290229 9.36656C0.19919 9.46304 0.127825 9.57681 0.0802316 9.70134C0.027327 9.82277 0 9.95407 0 10.0868C0 10.2196 0.027327 10.3509 0.0802316 10.4723C0.130873 10.5953 0.201899 10.7085 0.290229 10.8071C0.387429 10.8967 0.499042 10.9688 0.620225 11.0202C0.739924 11.0738 0.869352 11.1015 1.00022 11.1015C1.13109 11.1015 1.26052 11.0738 1.38022 11.0202C1.5014 10.9688 1.61301 10.8967 1.71021 10.8071C1.79854 10.7085 1.86957 10.5953 1.92021 10.4723C1.97311 10.3509 2.00044 10.2196 2.00044 10.0868C2.00044 9.95407 1.97311 9.82277 1.92021 9.70134C1.87262 9.57681 1.80125 9.46304 1.71021 9.36656ZM19 9.07237H5.00017C4.73496 9.07237 4.48061 9.17925 4.29308 9.3695C4.10554 9.55975 4.00019 9.81778 4.00019 10.0868C4.00019 10.3559 4.10554 10.6139 4.29308 10.8042C4.48061 10.9944 4.73496 11.1013 5.00017 11.1013H19C19.2652 11.1013 19.5196 10.9944 19.7071 10.8042C19.8946 10.6139 20 10.3559 20 10.0868C20 9.81778 19.8946 9.55975 19.7071 9.3695C19.5196 9.17925 19.2652 9.07237 19 9.07237ZM1.71021 4.2942C1.61511 4.20184 1.50297 4.12944 1.38022 4.08116C1.19811 4.00347 0.997397 3.98224 0.80341 4.02016C0.609422 4.05807 0.430851 4.15343 0.290229 4.2942C0.201899 4.3928 0.130873 4.50603 0.0802316 4.62897C0.027327 4.75041 0 4.88171 0 5.01447C0 5.14724 0.027327 5.27854 0.0802316 5.39997C0.130873 5.52291 0.201899 5.63614 0.290229 5.73475C0.387429 5.82436 0.499042 5.89641 0.620225 5.94779C0.802334 6.02548 1.00304 6.0467 1.19703 6.00879C1.39102 5.97087 1.56959 5.87551 1.71021 5.73475C1.79854 5.63614 1.86957 5.52291 1.92021 5.39997C1.97311 5.27854 2.00044 5.14724 2.00044 5.01447C2.00044 4.88171 1.97311 4.75041 1.92021 4.62897C1.86957 4.50603 1.79854 4.3928 1.71021 4.2942ZM19 14.1447H5.00017C4.73496 14.1447 4.48061 14.2516 4.29308 14.4419C4.10554 14.6321 4.00019 14.8901 4.00019 15.1592C4.00019 15.4283 4.10554 15.6863 4.29308 15.8765C4.48061 16.0668 4.73496 16.1737 5.00017 16.1737H19C19.2652 16.1737 19.5196 16.0668 19.7071 15.8765C19.8946 15.6863 20 15.4283 20 15.1592C20 14.8901 19.8946 14.6321 19.7071 14.4419C19.5196 14.2516 19.2652 14.1447 19 14.1447Z" fill="#7ADC4B"/>
</g>
</svg>
