<svg width="14" height="14" viewBox="0 0 14 14" fill="none" xmlns="http://www.w3.org/2000/svg">
<g id="octicon:people-24">
<path id="Vector" d="M2.04167 4.66665C2.04178 4.1136 2.18486 3.56997 2.45701 3.08852C2.72916 2.60706 3.12115 2.20414 3.59493 1.91884C4.06871 1.63354 4.6082 1.47555 5.16103 1.46022C5.71387 1.44488 6.26128 1.57271 6.75015 1.83131C7.23902 2.08991 7.65274 2.47048 7.95117 2.93611C8.24959 3.40173 8.42259 3.93659 8.45336 4.48879C8.48414 5.04098 8.37165 5.59175 8.12681 6.08765C7.88197 6.58356 7.5131 7.00775 7.056 7.31907C8.04038 7.68011 8.89418 8.32748 9.50754 9.17786C10.1209 10.0282 10.4657 11.0427 10.4977 12.0907C10.4963 12.2037 10.4513 12.3118 10.3722 12.3924C10.293 12.4731 10.1857 12.52 10.0728 12.5234C9.9598 12.5267 9.84991 12.4864 9.76604 12.4106C9.68216 12.3349 9.6308 12.2297 9.62267 12.117C9.58793 10.9803 9.11198 9.90187 8.29568 9.11014C7.47939 8.31841 6.38689 7.87563 5.24971 7.87563C4.11253 7.87563 3.02003 8.31841 2.20373 9.11014C1.38743 9.90187 0.911486 10.9803 0.876749 12.117C0.870908 12.2312 0.82056 12.3386 0.736492 12.4162C0.652423 12.4938 0.541319 12.5353 0.426983 12.532C0.312647 12.5286 0.204172 12.4806 0.124798 12.3982C0.045423 12.3159 0.00146189 12.2057 0.00233201 12.0913C0.0341536 11.0432 0.378936 10.0286 0.992299 9.1781C1.60566 8.32761 2.45953 7.68015 3.444 7.31907C3.01165 7.02485 2.65784 6.62935 2.41341 6.16702C2.16898 5.7047 2.04136 5.18961 2.04167 4.66665ZM5.25 2.33332C4.63116 2.33332 4.03767 2.57915 3.60008 3.01673C3.1625 3.45432 2.91667 4.04781 2.91667 4.66665C2.91667 5.28549 3.1625 5.87898 3.60008 6.31657C4.03767 6.75415 4.63116 6.99998 5.25 6.99998C5.86884 6.99998 6.46233 6.75415 6.89991 6.31657C7.3375 5.87898 7.58333 5.28549 7.58333 4.66665C7.58333 4.04781 7.3375 3.45432 6.89991 3.01673C6.46233 2.57915 5.86884 2.33332 5.25 2.33332ZM10.0858 4.66665C9.9995 4.66665 9.9155 4.67248 9.83267 4.68415C9.77483 4.6945 9.71551 4.69311 9.65823 4.68004C9.60095 4.66697 9.54689 4.64249 9.49927 4.60807C9.45165 4.57366 9.41146 4.53 9.38108 4.47971C9.3507 4.42943 9.33076 4.37353 9.32245 4.31537C9.31414 4.25721 9.31763 4.19797 9.33272 4.14119C9.3478 4.0844 9.37416 4.03124 9.41024 3.98486C9.44631 3.93849 9.49136 3.89986 9.54269 3.87127C9.59402 3.84269 9.65058 3.82473 9.709 3.81848C10.2892 3.7346 10.8808 3.84601 11.3907 4.13519C11.9006 4.42436 12.2999 4.87488 12.5257 5.41584C12.7515 5.9568 12.791 6.55749 12.6381 7.12338C12.4851 7.68927 12.1483 8.18823 11.6807 8.54173C12.3681 8.84952 12.9517 9.34965 13.3612 9.98177C13.7706 10.6139 13.9885 11.351 13.9883 12.1041C13.9883 12.2202 13.9422 12.3315 13.8602 12.4135C13.7781 12.4956 13.6669 12.5416 13.5508 12.5416C13.4348 12.5416 13.3235 12.4956 13.2415 12.4135C13.1594 12.3315 13.1133 12.2202 13.1133 12.1041C13.1133 11.4532 12.9035 10.8197 12.5152 10.2973C12.1269 9.77487 11.5806 9.39146 10.9573 9.20382L10.6458 9.11048V8.13282L10.885 8.0109C11.2395 7.83132 11.5232 7.5375 11.6902 7.17687C11.8572 6.81625 11.8978 6.40987 11.8054 6.02334C11.713 5.63681 11.4931 5.29269 11.1811 5.04653C10.8691 4.80037 10.4832 4.66654 10.0858 4.66665Z" fill="#80858F"/>
</g>
</svg>
