<svg width="20" height="20" viewBox="0 0 20 20" fill="none" xmlns="http://www.w3.org/2000/svg">
<path id="Vector" d="M6.0197 9C5.8222 9 5.62913 9.05865 5.46491 9.16853C5.3007 9.27841 5.1727 9.43459 5.09712 9.61732C5.02154 9.80004 5.00177 10.0011 5.0403 10.1951C5.07883 10.3891 5.17394 10.5673 5.31359 10.7071C5.45325 10.847 5.63118 10.9422 5.82489 10.9808C6.01859 11.0194 6.21938 10.9996 6.40185 10.9239C6.58432 10.8482 6.74027 10.72 6.85 10.5556C6.95973 10.3911 7.01829 10.1978 7.01829 10C7.01829 9.73478 6.91309 9.48043 6.72581 9.29289C6.53854 9.10536 6.28455 9 6.0197 9ZM10.0141 9C9.81657 9 9.6235 9.05865 9.45928 9.16853C9.29507 9.27841 9.16708 9.43459 9.09149 9.61732C9.01591 9.80004 8.99614 10.0011 9.03467 10.1951C9.0732 10.3891 9.16831 10.5673 9.30796 10.7071C9.44762 10.847 9.62555 10.9422 9.81926 10.9808C10.013 11.0194 10.2137 10.9996 10.3962 10.9239C10.5787 10.8482 10.7346 10.72 10.8444 10.5556C10.9541 10.3911 11.0127 10.1978 11.0127 10C11.0127 9.73478 10.9075 9.48043 10.7202 9.29289C10.5329 9.10536 10.2789 9 10.0141 9ZM14.0084 9C13.8109 9 13.6179 9.05865 13.4537 9.16853C13.2894 9.27841 13.1614 9.43459 13.0859 9.61732C13.0103 9.80004 12.9905 10.0011 13.029 10.1951C13.0676 10.3891 13.1627 10.5673 13.3023 10.7071C13.442 10.847 13.6199 10.9422 13.8136 10.9808C14.0073 11.0194 14.2081 10.9996 14.3906 10.9239C14.5731 10.8482 14.729 10.72 14.8387 10.5556C14.9485 10.3911 15.007 10.1978 15.007 10C15.007 9.73478 14.9018 9.48043 14.7146 9.29289C14.5273 9.10536 14.2733 9 14.0084 9ZM10.0141 0C8.7027 0 7.40417 0.258658 6.19262 0.761205C4.98108 1.26375 3.88024 2.00035 2.95296 2.92893C1.08023 4.8043 0.0281467 7.34784 0.0281467 10C0.0194168 12.3091 0.817826 14.5485 2.28497 16.33L0.287781 18.33C0.149218 18.4706 0.0553545 18.6492 0.0180329 18.8432C-0.0192886 19.0372 0.00160464 19.2379 0.0780763 19.42C0.161017 19.5999 0.295474 19.7511 0.464379 19.8544C0.633283 19.9577 0.829019 20.0083 1.02674 20H10.0141C12.6625 20 15.2025 18.9464 17.0752 17.0711C18.9479 15.1957 20 12.6522 20 10C20 7.34784 18.9479 4.8043 17.0752 2.92893C15.2025 1.05357 12.6625 0 10.0141 0ZM10.0141 18H3.43335L4.36204 17.07C4.45639 16.9774 4.53146 16.8669 4.58288 16.7451C4.63431 16.6232 4.66107 16.4923 4.66162 16.36C4.65786 16.0962 4.55019 15.8446 4.36204 15.66C3.05447 14.352 2.2402 12.6305 2.05798 10.7888C1.87575 8.94705 2.33684 7.09901 3.36267 5.55952C4.38851 4.02004 5.91564 2.88436 7.68387 2.34597C9.4521 1.80759 11.352 1.8998 13.06 2.60691C14.7679 3.31402 16.1782 4.59227 17.0506 6.22389C17.923 7.85551 18.2034 9.73954 17.8442 11.555C17.4849 13.3705 16.5082 15.005 15.0805 16.1802C13.6527 17.3554 11.8622 17.9985 10.0141 18Z" fill="#7ADC4B"/>
</svg>
